<svg width="32" height="32" viewBox="0 0 32 32" fill="none" xmlns="http://www.w3.org/2000/svg">
  <rect width="32" height="32" rx="8" fill="#007AFF"/>
  <path d="M8 10C8 9.44772 8.44772 9 9 9H23C23.5523 9 24 9.44772 24 10C24 10.5523 23.5523 11 23 11H9C8.44772 11 8 10.5523 8 10Z" fill="white"/>
  <path d="M8 16C8 15.4477 8.44772 15 9 15H19C19.5523 15 20 15.4477 20 16C20 16.5523 19.5523 17 19 17H9C8.44772 17 8 16.5523 8 16Z" fill="white"/>
  <path d="M8 22C8 21.4477 8.44772 21 9 21H15C15.5523 21 16 21.4477 16 22C16 22.5523 15.5523 23 15 23H9C8.44772 23 8 22.5523 8 22Z" fill="white"/>
  <circle cx="22" cy="22" r="2" fill="white"/>
</svg> 